<svg width="32" height="32" viewBox="0 0 32 32" fill="none" xmlns="http://www.w3.org/2000/svg">
<path d="M5.40151 11.8934C5.42833 11.5593 5.58002 11.2475 5.82636 11.0202C6.07271 10.7929 6.39564 10.6667 6.73085 10.6667H25.2695C25.6047 10.6667 25.9276 10.7929 26.174 11.0202C26.4203 11.2475 26.572 11.5593 26.5988 11.8934L27.7682 26.4534C27.7976 26.8203 27.7508 27.1894 27.6306 27.5373C27.5104 27.8853 27.3195 28.2045 27.0699 28.4751C26.8203 28.7456 26.5174 28.9615 26.1802 29.1093C25.843 29.257 25.479 29.3333 25.1108 29.3334H6.88951C6.52141 29.3333 6.15731 29.257 5.82015 29.1093C5.48299 28.9615 5.18006 28.7456 4.93044 28.4751C4.68082 28.2045 4.48991 27.8853 4.36974 27.5373C4.24957 27.1894 4.20273 26.8203 4.23218 26.4534L5.40018 11.8934H5.40151Z" stroke="black" stroke-width="2" stroke-linecap="round" stroke-linejoin="round"/>
<path d="M21.3337 14.6667V8.00008C21.3337 6.58559 20.7718 5.22904 19.7716 4.22885C18.7714 3.22865 17.4148 2.66675 16.0003 2.66675C14.5858 2.66675 13.2293 3.22865 12.2291 4.22885C11.2289 5.22904 10.667 6.58559 10.667 8.00008V14.6667" stroke="black" stroke-width="2" stroke-linecap="round" stroke-linejoin="round"/>
</svg>
